<?xml version="1.0" standalone="no"?>
<!DOCTYPE svg PUBLIC "-//W3C//DTD SVG 20010904//EN"
 "http://www.w3.org/TR/2001/REC-SVG-20010904/DTD/svg10.dtd">
<svg version="1.0" xmlns="http://www.w3.org/2000/svg"
 width="400.000000pt" height="400.000000pt" viewBox="0 0 400.000000 400.000000"
 preserveAspectRatio="xMidYMid meet">
<metadata>
Created by potrace 1.11, written by Peter Selinger 2001-2013
</metadata>
<g transform="translate(0.000000,400.000000) scale(0.100000,-0.100000)"
fill="#000000" stroke="none">
<path d="M1859 3956 c-2 -2 -33 -6 -69 -9 -93 -8 -134 -15 -230 -38 -576 -135
-1053 -511 -1312 -1036 -74 -150 -77 -157 -117 -285 -32 -102 -48 -163 -57
-226 -3 -20 -7 -42 -9 -49 -29 -88 -26 -481 5 -652 22 -123 27 -140 67 -266
162 -503 516 -911 999 -1153 124 -62 294 -124 405 -148 195 -41 261 -49 459
-49 195 0 285 9 445 47 571 133 1051 515 1314 1047 81 162 144 352 167 501 3
19 7 40 9 47 19 57 27 415 12 541 -27 225 -92 442 -196 648 -196 389 -495 687
-886 882 -191 95 -375 151 -620 188 -45 6 -380 15 -386 10z"/>
</g>
</svg>
