<?xml version="1.0" standalone="no"?>
<!DOCTYPE svg PUBLIC "-//W3C//DTD SVG 20010904//EN"
 "http://www.w3.org/TR/2001/REC-SVG-20010904/DTD/svg10.dtd">
<svg version="1.0" xmlns="http://www.w3.org/2000/svg"
 width="100.000000pt" height="100.000000pt" viewBox="0 0 100.000000 100.000000"
 preserveAspectRatio="xMidYMid meet">
<metadata>
Created by potrace 1.11, written by Peter Selinger 2001-2013
</metadata>
<g transform="translate(0.000000,100.000000) scale(0.100000,-0.100000)"
fill="#000000" stroke="none">
<path d="M358 980 c-273 -84 -421 -373 -331 -642 14 -40 28 -75 31 -78 4 -3
14 -18 22 -33 21 -42 133 -143 190 -172 195 -99 426 -63 582 91 197 194 197
512 0 709 -127 126 -328 177 -494 125z m30 -408 l-3 -219 -28 -36 c-45 -60
-138 -63 -192 -7 -38 40 -26 49 13 10 17 -16 36 -30 44 -31 7 0 23 -2 35 -3
12 -1 36 3 53 10 54 23 62 60 62 291 0 115 5 203 10 203 5 0 8 -92 6 -218z
m80 141 c16 -43 58 -154 92 -247 48 -126 66 -164 71 -150 11 26 87 225 139
362 24 61 47 112 52 112 6 0 7 -8 3 -17 -10 -24 -141 -363 -168 -435 -11 -32
-26 -58 -32 -58 -12 0 -9 -7 -110 260 -40 107 -78 207 -84 223 -6 15 -7 27 -2
27 5 0 22 -35 39 -77z"/>
</g>
</svg>
